<svg xmlns="http://www.w3.org/2000/svg" viewBox="0 0 100 100">
  <defs>
    <linearGradient id="bulbGradient" x1="0%" y1="0%" x2="0%" y2="100%">
      <stop offset="0%" style="stop-color:#FDD835;stop-opacity:1" />
      <stop offset="100%" style="stop-color:#FBC02D;stop-opacity:1" />
    </linearGradient>
  </defs>
  
  <!-- Lightbulb body -->
  <path d="M 50 15 Q 35 15 28 28 Q 20 40 20 50 Q 20 62 28 70 L 35 78 L 35 85 Q 35 90 40 90 L 60 90 Q 65 90 65 85 L 65 78 L 72 70 Q 80 62 80 50 Q 80 40 72 28 Q 65 15 50 15 Z" 
        fill="url(#bulbGradient)" stroke="#F9A825" stroke-width="2"/>
  
  <!-- Bulb base/screw threads -->
  <rect x="42" y="88" width="16" height="3" fill="#9E9E9E" rx="1"/>
  <rect x="42" y="92" width="16" height="3" fill="#757575" rx="1"/>
  
  <!-- Highlight/shine effect -->
  <ellipse cx="42" cy="30" rx="8" ry="12" fill="#FFFFFF" opacity="0.4"/>
  
  <!-- Filament suggestion -->
  <path d="M 50 40 L 48 50 L 52 50 Z" fill="#F57C00" opacity="0.6"/>
</svg>
